<?xml version="1.0" encoding="UTF-8"?>
<svg id="_图层_1" data-name="图层 1" xmlns="http://www.w3.org/2000/svg" xmlns:xlink="http://www.w3.org/1999/xlink" viewBox="0 0 881.8 809.76">
  <defs>
    <style>
      .cls-1 {
        fill: url(#_未命名的渐变_14);
      }
    </style>
    <linearGradient id="_未命名的渐变_14" data-name="未命名的渐变 14" x1="0" y1="404.88" x2="881.8" y2="404.88" gradientUnits="userSpaceOnUse">
      <stop offset=".03" stop-color="#59d5f6"/>
      <stop offset=".5" stop-color="#c386f4"/>
      <stop offset="1" stop-color="#ff9fc1"/>
    </linearGradient>
  </defs>
  <path class="cls-1" d="M718.06,3.63l153.87,92.15c6.24,5.35.48,9.87-2.88,12.59-37.78,24.64-85.69,43.75-121.74,70.08-10.34,7.55-22.7,17.24-13.95,31.39,8.32,13.45,58.62,40.53,74.83,50.02,26.31,15.4,70.73,29.05,73.6,53.98v311.25c-5.03,45.86-33.44,93.72-71.2,121.93-124.33,92.89-206.64,2.19-352.83-78.82-22.08-10.97-41.74,5.48-60.35,16.29-78.06,45.35-108.81,63.64-208.7,121.55,0,0-8.79,7.09-18.21,1.64-23.07-13.35-39.36-22.57-57.24-33.13-37.8-22.32-60.38-34.57-95.26-55.66-16.24-9.82-13.54-13.13.82-21.68,49.21-29.29,70.38-40.58,124.54-73.15,14.26-13.32,10.44-25.43-4.88-35.29-42.41-27.28-82.4-50.37-115.66-71.32C2.9,502.18.14,498.12.02,466.54c-.12-32.04.32-118.87.42-151.73C.76,211.42-12.88,103.02,92.77,45.08c125.72-68.94,225.78,41.68,331.16,92.36,17.38,8.36,22.05,7.47,39.27-.61,0,0,178.76-103.27,233.28-134.88,9.03-5.23,21.57,1.67,21.57,1.67ZM183.88,212.52c-3.92,2.41-4.29,7.2-4.29,13.47,2.22,115.24-.73,232.05,1.28,346.45,1.92,22.47,26.62,13.9,40.47,6.55,43.67-23.17,80.51-44.54,109.09-62.82,10.82-6.92,21.1-15.65,21.21-29.46.39-50.58.37-81.49,0-168.38-1.99-11.68.11-14.28-17.19-24.43-42.86-25.17-88.92-50.61-132.98-76.94-3.96-1.86-13.24-7.11-17.59-4.44ZM700.4,593.88c2.03-2.05,2.11-6.6,2.32-9.43,1.96-163.99,1.07-230,0-338.54-.37-37.07-21.72-28.57-46.52-15.63-45.61,23.82-51.54,30-109.75,63.97-15.99,8.91-15.6,16.08-15.77,29.47-.8,64.4.79,117.74.98,169.95-.07,9.68,3.11,10.85,9.8,15.87,64.44,37.5,67.44,40.07,139.44,80.29,5.07,2.83,14.41,9.2,19.51,4.04Z"/>
</svg>