<?xml version="1.0" encoding="UTF-8"?>
<svg id="_图层_2" data-name="图层 2" xmlns="http://www.w3.org/2000/svg" xmlns:xlink="http://www.w3.org/1999/xlink" viewBox="0 0 2474.69 428.68">
  <defs>
    <style>
      .cls-1 {
        fill: #fff;
      }

      .cls-2 {
        fill: url(#_未命名的渐变_18);
      }

      .cls-3 {
        fill: url(#_未命名的渐变_14);
      }
    </style>
    <linearGradient id="_未命名的渐变_14" data-name="未命名的渐变 14" x1="0" y1="214.34" x2="466.82" y2="214.34" gradientUnits="userSpaceOnUse">
      <stop offset=".03" stop-color="#59d5f6"/>
      <stop offset=".5" stop-color="#c386f4"/>
      <stop offset="1" stop-color="#ff9fc1"/>
    </linearGradient>
    <linearGradient id="_未命名的渐变_18" data-name="未命名的渐变 18" x1="1454.16" y1="97.57" x2="1498.94" y2="20" gradientUnits="userSpaceOnUse">
      <stop offset=".03" stop-color="#59d5f6"/>
      <stop offset=".56" stop-color="#c386f4"/>
      <stop offset="1" stop-color="#ff9fc1"/>
    </linearGradient>
  </defs>
  <g id="_图层_1_图像" data-name="图层 1 图像">
    <path class="cls-3" d="M380.14,1.92l81.46,48.78c3.31,2.83.25,5.22-1.52,6.67-20,13.05-45.36,23.16-64.45,37.1-5.47,4-12.02,9.13-7.39,16.62,4.4,7.12,31.03,21.46,39.61,26.48,13.93,8.15,37.44,15.38,38.96,28.57v164.77c-2.66,24.28-17.7,49.61-37.69,64.55-65.82,49.18-109.39,1.16-186.79-41.73-11.69-5.81-22.1,2.9-31.95,8.62-41.33,24.01-57.6,33.69-110.48,64.35,0,0-4.65,3.76-9.64.87-12.21-7.07-20.83-11.95-30.3-17.54-20.01-11.82-31.96-18.3-50.43-29.47-8.6-5.2-7.17-6.95.43-11.48,26.05-15.5,37.26-21.48,65.93-38.72,7.55-7.05,5.53-13.46-2.58-18.68-22.45-14.44-43.62-26.66-61.23-37.76C1.54,265.85.07,263.7.01,246.98s.17-62.93.22-80.32C.4,111.92-6.82,54.54,49.11,23.86c66.55-36.5,119.53,22.07,175.31,48.9,9.2,4.42,11.67,3.95,20.79-.32,0,0,94.63-54.67,123.5-71.4,4.78-2.77,11.42.89,11.42.89ZM97.34,112.51c-2.07,1.27-2.27,3.81-2.27,7.13,1.18,61.01-.39,122.84.68,183.41,1.02,11.89,14.09,7.36,21.42,3.47,23.12-12.26,42.62-23.58,57.75-33.26,5.73-3.66,11.17-8.29,11.23-15.59.21-26.77.2-43.14,0-89.14-1.05-6.18.06-7.56-9.1-12.93-22.69-13.32-47.07-26.79-70.4-40.73-2.1-.99-7.01-3.76-9.31-2.35ZM370.79,314.4c1.07-1.09,1.11-3.49,1.23-4.99,1.04-86.81.57-121.76,0-179.22-.19-19.63-11.5-15.13-24.63-8.27-24.15,12.61-27.28,15.88-58.1,33.86-8.47,4.72-8.26,8.51-8.35,15.6-.42,34.09.42,62.33.52,89.97-.04,5.12,1.64,5.74,5.19,8.4,34.11,19.85,35.7,21.21,73.82,42.51,2.68,1.5,7.63,4.87,10.33,2.14Z"/>
  </g>
  <g id="RMinte_图像" data-name="RMinte 图像">
    <path class="cls-1" d="M589.63,26.21l144.4-.05c52.45,1.93,100.36,34.09,121.24,82.07,28.73,66.02-.14,145.93-65.7,175.76l76.41,119.6h-77.51l-67.97-105.58h-43.25l26.02-64.96c26.48-.23,46.86,3.03,69.37-13.2,41.25-29.74,38.12-92.83-5.61-118.87-5.54-3.3-20.22-9.64-26.31-9.64h-85.94v312.24h-65.16V26.21Z"/>
    <path class="cls-1" d="M2474.69,258.7v21.34l-3.37,21.34h-208.95c.93,6.09,6.05,12.72,10.08,17.44,24.97,29.16,65.5,35.62,99.25,17.66l67.02,27.23c-19.53,21.98-45.21,37.41-74.11,43.81l-26.97,3.92c-3.71-.17-7.53.24-11.23,0-111.06-7.17-175.94-128.8-112.13-222.74,75-110.42,249.77-64.03,259.38,68.21l1.04,1.78ZM2262.36,237.36h138.74l1.2-2.29c-17.11-32.21-49.6-49.36-86.06-42.12-22.65,4.5-46.71,22.01-53.88,44.4Z"/>
    <polygon class="cls-1" points="1032.25 26.21 1149.65 208.14 1268.72 26.21 1338.94 26.21 1338.94 403.59 1273.78 403.59 1273.78 137.4 1149.65 328.32 1025.51 137.4 1025.51 403.59 960.35 403.59 960.35 26.21 1032.25 26.21"/>
    <path class="cls-1" d="M1869.18,403.59h-64.03v-154.44c0-33.83-37.29-60.15-69.07-57.83-26.89,1.97-57.87,28.6-57.87,56.7v155.56h-64.03V134.03h64.03v20.22c17.76-13.06,38.67-25.09,61.24-26.94,72.96-5.98,122.46,43.86,129.72,114v162.29Z"/>
    <path class="cls-1" d="M2034.32,64.4v102.21h37.07l15.73,65.14h-52.8v90.41c0,2.57,6.16,9.95,8.4,11.82,12.97,10.83,41.51,3.25,57.73,5.74l15.88,63.87h-71.34c-35.5,0-76.47-47.23-75.87-82.51l.19-240.26,65.01-16.43Z"/>
    <rect class="cls-1" x="1444.54" y="134.03" width="64.03" height="269.56"/>
  </g>
  <g id="_图层_3_图像" data-name="图层 3 图像">
    <rect class="cls-2" x="1443.41" y="26.21" width="66.28" height="65.16"/>
  </g>
</svg>